<?xml version="1.0" encoding="iso-8859-1"?>
<!-- Generator: Adobe Illustrator 16.0.0, SVG Export Plug-In . SVG Version: 6.00 Build 0)  -->
<!DOCTYPE svg PUBLIC "-//W3C//DTD SVG 1.1//EN" "http://www.w3.org/Graphics/SVG/1.1/DTD/svg11.dtd">
<svg version="1.1" id="Capa_1" xmlns="http://www.w3.org/2000/svg" xmlns:xlink="http://www.w3.org/1999/xlink" x="0px" y="0px"
	 width="187.059px" height="187.06px" viewBox="0 0 187.059 187.06" style="enable-background:new 0 0 187.059 187.06;"
	 xml:space="preserve">
<g>
	<path d="M92.032,139.448c0,0,14.869-45.754,33.776-17.823c3.812-3.994,12.769-12.854,23.206-6.911
		c10.717,6.102,3.885,17.684-0.128,20.686c6.083-1.212,38.173-8.902,38.173-39.281c0-30.373-42.855-45.063-54.17-43.44
		c3.228,4.451,12.775,21.312-7.44,29.417c-10.327,3.011-16.977-2.649-18.194-7.033c-1.218-3.642-4.153-22.591-3.739-27.45
		c-3.567,14.809-15.709,14.438-19.649,0.32c0,9.721-2.719,23.175-4.521,26.326c-4.104,7.2-9.804,12.602-22.223,4.856
		c-7.021-4.378-12.428-16.718-4.04-26.469C47.419,53.457,0,64.256,0,94.985c0,35.908,34.48,41.248,37.305,41.248
		c-5.843-7.624-13.679-20.368,3.641-23.639c14.553,0.28,17.646,8.646,18.855,11.076C61.111,121.461,69.1,92.087,92.032,139.448z"/>
</g>
<g>
</g>
<g>
</g>
<g>
</g>
<g>
</g>
<g>
</g>
<g>
</g>
<g>
</g>
<g>
</g>
<g>
</g>
<g>
</g>
<g>
</g>
<g>
</g>
<g>
</g>
<g>
</g>
<g>
</g>
</svg>
